<svg xmlns="http://www.w3.org/2000/svg" xmlns:xlink="http://www.w3.org/1999/xlink" width="300" zoomAndPan="magnify" viewBox="0 0 224.87999 225" height="300" preserveAspectRatio="xMidYMid meet" version="1.0"><defs><g/><clipPath id="9d3eb9c2f1"><path d="M 67 94.035156 L 71.613281 94.035156 L 71.613281 98.65625 L 67 98.65625 Z M 67 94.035156 " clip-rule="nonzero"/></clipPath><clipPath id="fc32d9d19f"><path d="M 67.015625 96.308594 C 68.589844 94.058594 69.5625 93.984375 70.164062 94.210938 C 70.6875 94.433594 71.363281 95.183594 71.511719 95.785156 C 71.660156 96.382812 71.363281 97.359375 70.914062 97.808594 C 70.539062 98.257812 69.5625 98.632812 68.964844 98.484375 C 68.289062 98.40625 67.539062 97.808594 67.238281 97.207031 C 67.015625 96.683594 67.089844 95.632812 67.390625 95.109375 C 67.6875 94.585938 68.589844 94.136719 69.1875 94.058594 C 69.636719 93.984375 70.164062 94.136719 70.539062 94.433594 C 71.0625 94.808594 71.511719 95.707031 71.585938 96.308594 C 71.585938 96.832031 71.363281 97.433594 71.0625 97.808594 C 70.761719 98.183594 70.164062 98.558594 69.710938 98.632812 C 69.113281 98.707031 68.136719 98.332031 67.6875 97.957031 C 67.3125 97.582031 67.015625 96.535156 67.015625 96.535156 " clip-rule="nonzero"/></clipPath><clipPath id="711f8b8d41"><path d="M 48.015625 48.347656 L 74.480469 48.347656 L 74.480469 68.785156 L 48.015625 68.785156 Z M 48.015625 48.347656 " clip-rule="nonzero"/></clipPath><clipPath id="40f16fa6df"><path d="M 50.148438 56.128906 C 72.410156 54.929688 72.785156 54.929688 73.3125 55.15625 C 73.761719 55.378906 74.210938 55.753906 74.359375 56.28125 C 74.511719 56.878906 74.359375 58.003906 73.835938 58.679688 C 73.011719 59.726562 71.0625 60.628906 69.261719 61.300781 C 67.089844 62.203125 63.117188 63.476562 61.390625 63.25 C 60.417969 63.175781 59.816406 62.875 59.367188 62.277344 C 58.695312 61.527344 58.394531 59.804688 58.394531 58.527344 C 58.394531 57.40625 59.59375 55.457031 59.070312 55.082031 C 58.320312 54.554688 53.597656 58.980469 51.949219 58.902344 C 50.972656 58.828125 50 58.078125 49.699219 57.480469 C 49.398438 57.03125 49.398438 56.28125 49.546875 55.832031 C 49.773438 55.304688 50 55.082031 50.597656 54.554688 C 52.171875 53.132812 58.46875 48.785156 60.417969 48.484375 C 61.167969 48.335938 61.617188 48.558594 62.066406 48.785156 C 62.441406 49.082031 62.964844 49.609375 63.042969 50.132812 C 63.117188 50.808594 62.589844 52.53125 62.140625 52.605469 C 61.691406 52.757812 60.417969 51.484375 60.191406 50.957031 C 60.042969 50.582031 60.042969 50.058594 60.269531 49.832031 C 60.492188 49.609375 61.390625 49.535156 61.917969 49.683594 C 62.515625 49.910156 63.339844 50.582031 63.566406 51.183594 C 63.789062 51.855469 63.714844 52.53125 63.265625 53.429688 C 62.066406 55.832031 54.570312 62.875 52.546875 64.152344 C 51.871094 64.527344 51.496094 64.675781 51.046875 64.675781 C 50.523438 64.675781 49.921875 64.375 49.546875 64.074219 C 49.171875 63.699219 48.875 63.101562 48.875 62.652344 C 48.800781 62.125 48.875 61.453125 49.25 61.078125 C 49.773438 60.628906 50.972656 60.851562 51.722656 60.476562 C 52.695312 60.027344 53.445312 58.605469 54.421875 58.378906 C 55.171875 58.230469 56.445312 58.679688 56.894531 59.203125 C 57.34375 59.652344 57.496094 60.476562 57.34375 61.300781 C 57.042969 62.726562 54.347656 66.925781 53.597656 66.847656 C 53.148438 66.847656 52.398438 65.425781 52.621094 64.75 C 53.148438 63.402344 58.84375 62.277344 61.316406 60.925781 C 63.339844 59.804688 64.992188 57.628906 66.414062 57.480469 C 67.464844 57.328125 68.738281 57.777344 69.113281 58.378906 C 69.488281 59.054688 69.039062 60.402344 68.511719 61.152344 C 67.914062 61.976562 66.640625 62.875 65.738281 63.101562 C 65.066406 63.25 64.242188 63.175781 63.714844 62.800781 C 63.191406 62.351562 62.816406 61.003906 62.964844 60.328125 C 63.117188 59.726562 63.867188 59.128906 64.464844 58.980469 C 64.992188 58.828125 65.964844 59.054688 66.414062 59.429688 C 66.863281 59.953125 67.164062 61.378906 66.9375 61.976562 C 66.714844 62.578125 65.890625 63.175781 65.289062 63.175781 C 64.617188 63.25 63.339844 62.5 63.042969 61.902344 C 62.742188 61.378906 62.816406 60.550781 63.191406 59.953125 C 63.640625 59.054688 65.515625 57.777344 66.414062 57.480469 C 67.015625 57.253906 67.464844 57.253906 67.988281 57.40625 C 68.4375 57.628906 69.1875 58.304688 69.339844 58.902344 C 69.414062 59.578125 69.039062 60.476562 68.289062 61.378906 C 66.414062 63.476562 58.695312 67.972656 55.171875 68.574219 C 53.070312 69.023438 50.597656 68.722656 49.773438 67.898438 C 49.097656 67.222656 49.097656 65.875 49.398438 64.75 C 49.847656 62.953125 52.621094 59.429688 53.894531 58.679688 C 54.496094 58.304688 55.019531 58.230469 55.46875 58.304688 C 55.996094 58.453125 56.59375 58.753906 56.894531 59.203125 C 57.195312 59.578125 57.417969 60.253906 57.417969 60.777344 C 57.34375 61.226562 57.195312 61.753906 56.746094 62.277344 C 55.84375 63.101562 52.921875 64.527344 51.574219 64.601562 C 50.746094 64.675781 50 64.527344 49.546875 64.074219 C 49.097656 63.550781 48.722656 62.578125 49.023438 61.527344 C 49.773438 58.902344 57.792969 50.882812 60.269531 49.832031 C 61.167969 49.457031 61.917969 49.609375 62.515625 49.910156 C 62.964844 50.132812 63.492188 50.65625 63.566406 51.183594 C 63.714844 51.933594 63.339844 53.28125 62.890625 53.882812 C 62.515625 54.332031 61.992188 54.632812 61.390625 54.78125 C 60.644531 54.929688 59.292969 55.082031 58.617188 54.632812 C 57.867188 54.03125 57.269531 52.082031 57.496094 51.03125 C 57.644531 50.207031 58.695312 49.308594 59.367188 48.859375 C 59.894531 48.558594 60.492188 48.410156 61.015625 48.484375 C 61.46875 48.484375 62.140625 48.785156 62.441406 49.160156 C 62.816406 49.535156 63.042969 50.207031 63.117188 50.734375 C 63.117188 51.183594 63.042969 51.632812 62.515625 52.230469 C 61.316406 53.882812 54.496094 58.304688 52.472656 58.753906 C 51.722656 58.980469 51.273438 58.902344 50.824219 58.679688 C 50.375 58.453125 49.847656 57.929688 49.699219 57.480469 C 49.472656 57.03125 49.398438 56.355469 49.546875 55.832031 C 49.773438 55.304688 50.148438 54.855469 50.898438 54.332031 C 52.320312 53.355469 56.371094 51.484375 58.617188 51.183594 C 60.191406 50.957031 61.917969 51.03125 62.816406 51.78125 C 63.566406 52.382812 63.867188 53.957031 63.941406 55.003906 C 63.941406 55.90625 63.789062 57.03125 63.265625 57.703125 C 62.816406 58.304688 60.941406 58.753906 61.015625 58.828125 C 61.09375 58.980469 65.589844 57.929688 67.539062 57.253906 C 69.261719 56.578125 71.0625 54.855469 72.261719 54.929688 C 73.085938 55.003906 74.058594 55.679688 74.359375 56.28125 C 74.585938 56.804688 74.433594 57.777344 74.136719 58.304688 C 73.910156 58.753906 73.609375 58.902344 72.9375 59.203125 C 70.085938 60.179688 53.371094 60.851562 50.375 60.476562 C 49.546875 60.328125 49.25 60.328125 48.875 59.953125 C 48.425781 59.578125 47.972656 58.679688 48.050781 58.078125 C 48.199219 57.40625 50.148438 56.128906 50.148438 56.128906 " clip-rule="nonzero"/></clipPath><clipPath id="506a589609"><path d="M 29.582031 55.503906 L 65.289062 55.503906 L 65.289062 85.847656 L 29.582031 85.847656 Z M 29.582031 55.503906 " clip-rule="nonzero"/></clipPath><clipPath id="95abb0e112"><path d="M 30.957031 81.390625 C 44.527344 72.695312 52.996094 60.328125 57.496094 57.40625 C 59.519531 56.128906 61.316406 55.457031 62.742188 55.679688 C 63.640625 55.753906 64.691406 56.503906 65.066406 57.179688 C 65.363281 57.855469 65.140625 58.605469 64.839844 59.503906 C 64.164062 61.152344 61.765625 64.902344 60.191406 65.726562 C 59.21875 66.175781 57.945312 66.101562 57.34375 65.648438 C 56.746094 65.199219 56.371094 63.550781 56.59375 62.875 C 56.820312 62.203125 57.71875 61.601562 58.320312 61.453125 C 58.84375 61.300781 59.367188 61.378906 59.816406 61.675781 C 60.34375 61.976562 61.09375 62.800781 61.167969 63.402344 C 61.242188 64.074219 60.941406 65.125 60.417969 65.5 C 59.816406 66.023438 58.167969 66.175781 57.570312 65.800781 C 56.894531 65.351562 56.371094 64.152344 56.519531 63.101562 C 56.820312 61.226562 60.417969 56.28125 62.140625 55.753906 C 63.042969 55.457031 64.316406 56.054688 64.765625 56.65625 C 65.214844 57.328125 65.289062 58.605469 64.839844 59.503906 C 64.089844 60.777344 61.167969 61.003906 58.917969 62.800781 C 54.796875 66.023438 48.648438 75.246094 43.625 79.292969 C 39.804688 82.292969 34.480469 85.363281 32.382812 85.738281 C 31.632812 85.890625 31.257812 85.738281 30.808594 85.515625 C 30.359375 85.214844 29.910156 84.691406 29.757812 84.238281 C 29.609375 83.714844 29.609375 83.039062 29.835938 82.589844 C 30.058594 82.140625 30.957031 81.390625 30.957031 81.390625 " clip-rule="nonzero"/></clipPath><clipPath id="4043082963"><path d="M 24.605469 32.195312 L 105 32.195312 L 105 185.347656 L 24.605469 185.347656 Z M 24.605469 32.195312 " clip-rule="nonzero"/></clipPath><clipPath id="eea30c82bc"><path d="M 100.820312 68.125 C 104.644531 128.242188 105.167969 138.511719 104.792969 145.332031 C 104.644531 149.378906 104.417969 151.777344 103.667969 154.851562 C 102.921875 157.925781 101.722656 161 100.296875 163.847656 C 98.796875 166.621094 96.921875 169.320312 94.824219 171.71875 C 92.726562 174.117188 90.25 176.289062 87.628906 178.089844 C 85.003906 179.890625 82.082031 181.386719 79.15625 182.511719 C 76.160156 183.636719 73.011719 184.460938 69.863281 184.835938 C 66.640625 185.210938 63.417969 185.210938 60.269531 184.835938 C 57.042969 184.460938 53.894531 183.636719 50.898438 182.511719 C 47.972656 181.386719 45.050781 179.890625 42.425781 178.089844 C 39.804688 176.289062 37.328125 174.117188 35.230469 171.71875 C 33.132812 169.320312 31.257812 166.621094 29.757812 163.847656 C 28.335938 161 27.136719 157.925781 26.386719 154.851562 C 25.636719 151.777344 25.1875 148.707031 25.261719 145.332031 C 25.335938 141.359375 25.9375 136.636719 27.285156 132.589844 C 28.632812 128.617188 30.808594 124.644531 33.355469 121.269531 C 35.90625 117.898438 39.203125 114.75 42.726562 112.425781 C 46.175781 110.027344 50.296875 108.152344 54.421875 106.953125 C 58.46875 105.828125 62.964844 105.378906 67.164062 105.605469 C 71.4375 105.828125 75.859375 106.804688 79.757812 108.378906 C 83.730469 109.953125 87.554688 112.273438 90.777344 114.972656 C 94 117.746094 96.921875 121.195312 99.097656 124.792969 C 101.347656 128.464844 102.996094 132.664062 103.894531 136.785156 C 104.792969 140.910156 105.019531 145.40625 104.570312 149.605469 C 104.121094 153.878906 102.921875 158.226562 101.121094 162.046875 C 99.398438 165.871094 96.847656 169.621094 93.925781 172.691406 C 91 175.765625 87.402344 178.539062 83.65625 180.488281 C 79.90625 182.511719 75.632812 183.9375 71.4375 184.613281 C 67.3125 185.285156 62.742188 185.285156 58.617188 184.613281 C 54.421875 183.9375 50.148438 182.511719 46.398438 180.488281 C 42.652344 178.539062 39.054688 175.765625 36.128906 172.691406 C 33.207031 169.621094 30.660156 165.871094 28.933594 162.046875 C 27.136719 158.226562 25.9375 153.804688 25.488281 149.605469 C 25.035156 145.40625 25.261719 140.910156 26.160156 136.785156 C 27.0625 132.664062 28.785156 128.464844 30.957031 124.792969 C 33.132812 121.195312 36.054688 117.746094 39.277344 114.972656 C 42.503906 112.273438 46.398438 109.953125 50.296875 108.378906 C 54.269531 106.804688 58.617188 105.828125 62.890625 105.605469 C 67.089844 105.378906 71.585938 105.828125 75.710938 106.953125 C 79.757812 108.152344 83.878906 110.027344 87.402344 112.425781 C 90.851562 114.75 94.148438 117.898438 96.699219 121.269531 C 99.246094 124.644531 101.421875 128.617188 102.769531 132.664062 C 104.121094 136.636719 104.71875 141.359375 104.792969 145.332031 C 104.867188 148.707031 104.417969 151.777344 103.667969 154.851562 C 102.921875 157.925781 101.722656 161 100.296875 163.847656 C 98.796875 166.621094 96.921875 169.320312 94.824219 171.71875 C 92.726562 174.117188 90.25 176.289062 87.628906 178.089844 C 85.003906 179.890625 82.082031 181.386719 79.15625 182.511719 C 76.160156 183.636719 73.011719 184.460938 69.863281 184.835938 C 66.714844 185.210938 63.417969 185.210938 60.269531 184.835938 C 57.121094 184.460938 53.894531 183.636719 50.898438 182.511719 C 47.972656 181.386719 45.050781 179.890625 42.425781 178.089844 C 39.804688 176.289062 37.328125 174.117188 35.230469 171.71875 C 33.132812 169.320312 31.257812 166.621094 29.757812 163.847656 C 28.335938 161 27.136719 157.925781 26.386719 154.851562 C 25.636719 151.777344 25.488281 149.980469 25.261719 145.332031 C 24.4375 132.4375 24.886719 85.214844 25.261719 72.472656 C 25.410156 67.972656 25.261719 66.324219 25.859375 63.402344 C 26.386719 60.402344 27.285156 57.40625 28.558594 54.707031 C 29.835938 51.933594 31.410156 49.234375 33.28125 46.910156 C 35.15625 44.511719 37.40625 42.261719 39.804688 40.464844 C 42.128906 38.589844 44.824219 36.941406 47.597656 35.742188 C 50.375 34.464844 53.371094 33.566406 56.296875 33.042969 C 59.292969 32.519531 62.441406 32.292969 65.441406 32.519531 C 68.4375 32.667969 71.511719 33.265625 74.433594 34.167969 C 77.285156 35.066406 80.132812 36.339844 82.753906 37.914062 C 85.304688 39.488281 87.777344 41.4375 89.878906 43.613281 C 92.050781 45.710938 93.925781 48.183594 95.5 50.808594 C 97.074219 53.355469 98.347656 56.203125 99.246094 59.128906 C 100.148438 61.976562 100.820312 68.125 100.820312 68.125 " clip-rule="nonzero"/></clipPath><clipPath id="a9ec7d5efb"><path d="M 35.066406 29.519531 L 92.789062 29.519531 L 92.789062 154.703125 L 35.066406 154.703125 Z M 35.066406 29.519531 " clip-rule="nonzero"/></clipPath><clipPath id="84546889da"><path d="M 22.488281 148.453125 L 89.953125 148.453125 L 89.953125 185 L 22.488281 185 Z M 22.488281 148.453125 " clip-rule="nonzero"/></clipPath><clipPath id="9c7b5d9936"><path d="M 46.382812 139 L 59 139 L 59 150 L 46.382812 150 Z M 46.382812 139 " clip-rule="nonzero"/></clipPath><clipPath id="0896c980f0"><path d="M 65 137.863281 L 76 137.863281 L 76 150 L 65 150 Z M 65 137.863281 " clip-rule="nonzero"/></clipPath><clipPath id="02c060b213"><path d="M 47 151 L 53 151 L 53 152.855469 L 47 152.855469 Z M 47 151 " clip-rule="nonzero"/></clipPath></defs><g fill="#111111" fill-opacity="1"><g transform="translate(10.594965, 203.664764)"><g><path d="M 8.328125 -188.140625 L 60.234375 -188.140625 C 73.671875 -188.140625 83.742188 -184.414062 90.453125 -176.96875 C 97.171875 -169.53125 100.601562 -158.507812 100.75 -143.90625 L 101.1875 -55.859375 C 101.332031 -37.304688 98.117188 -23.359375 91.546875 -14.015625 C 84.984375 -4.671875 74.109375 0 58.921875 0 L 8.328125 0 Z M 52.78125 -33.296875 C 59.644531 -33.296875 63.078125 -36.65625 63.078125 -43.375 L 63.078125 -140.40625 C 63.078125 -144.632812 62.75 -147.804688 62.09375 -149.921875 C 61.4375 -152.046875 60.234375 -153.472656 58.484375 -154.203125 C 56.734375 -154.929688 54.03125 -155.296875 50.375 -155.296875 L 46.21875 -155.296875 L 46.21875 -33.296875 Z M 52.78125 -33.296875 "/></g></g></g><g clip-path="url(#9d3eb9c2f1)"><g clip-path="url(#fc32d9d19f)"><path fill="#fdfce9" d="M 64.015625 91.0625 L 74.585938 91.0625 L 74.585938 101.714844 L 64.015625 101.714844 Z M 64.015625 91.0625 " fill-opacity="1" fill-rule="nonzero"/></g></g><g clip-path="url(#711f8b8d41)"><g clip-path="url(#40f16fa6df)"><path fill="#fdfce9" d="M 45.050781 45.484375 L 77.34375 45.484375 L 77.34375 71.648438 L 45.050781 71.648438 Z M 45.050781 45.484375 " fill-opacity="1" fill-rule="nonzero"/></g></g><g clip-path="url(#506a589609)"><g clip-path="url(#95abb0e112)"><path fill="#fdfce9" d="M 26.761719 52.683594 L 68.113281 52.683594 L 68.113281 88.8125 L 26.761719 88.8125 Z M 26.761719 52.683594 " fill-opacity="1" fill-rule="nonzero"/></g></g><g clip-path="url(#4043082963)"><g clip-path="url(#eea30c82bc)"><path fill="#111111" d="M 22.261719 29.519531 L 107.867188 29.519531 L 107.867188 188.019531 L 22.261719 188.019531 Z M 22.261719 29.519531 " fill-opacity="1" fill-rule="nonzero"/></g></g><g clip-path="url(#a9ec7d5efb)"><path fill="#fdfce9" d="M 42.199219 96.804688 L 37.941406 102.375 L 37.804688 102.484375 L 37.886719 102.59375 L 41.734375 107.808594 L 38.351562 102.511719 L 43.089844 97.039062 L 43.28125 96.820312 L 43.101562 96.585938 L 37.09375 88.128906 L 46.015625 79.339844 L 52.738281 76.960938 L 53.601562 76.660156 L 53.601562 75.699219 L 53.832031 68.707031 L 62.6875 68.335938 L 61.074219 72.019531 L 60.839844 72.511719 L 60.964844 73.085938 C 61.824219 77.191406 62.648438 81.296875 63.550781 85.320312 L 54.039062 91.453125 L 52.667969 92.371094 L 53.230469 93.847656 C 54.515625 96.738281 55.84375 99.609375 57.144531 102.484375 L 60.703125 110.285156 L 55.597656 120.019531 L 55.515625 119.9375 L 50.042969 125.410156 L 49.246094 126.203125 L 49.683594 126.945312 L 53.078125 132.761719 L 50.726562 135.074219 L 50.453125 135.347656 L 50.683594 135.578125 L 53.722656 138.316406 L 51.492188 135.457031 L 54.460938 133.429688 L 54.859375 133.171875 L 54.652344 132.625 L 52.640625 126.941406 L 57.378906 123.671875 C 59.785156 124.941406 62.199219 126.207031 64.617188 127.476562 L 71.558594 131.0625 C 68.820312 133.511719 66.082031 135.933594 63.34375 138.414062 L 63.140625 138.589844 L 63.140625 138.769531 C 62.234375 141.507812 61.320312 144.148438 60.402344 146.859375 C 59.484375 149.566406 58.664062 152.332031 57.828125 154.972656 C 59.035156 152.386719 60.222656 149.800781 61.386719 147.1875 C 62.550781 144.570312 63.632812 142.148438 64.742188 139.617188 C 68.164062 137.042969 71.515625 134.390625 74.898438 131.789062 L 76.402344 130.625 L 74.675781 129.625 L 66.328125 124.753906 C 64.054688 123.429688 61.777344 122.117188 59.484375 120.8125 L 64.878906 111.230469 L 65.328125 110.449219 L 64.945312 109.589844 L 64.507812 108.902344 L 70.285156 109.902344 L 72.898438 116.335938 L 73.1875 117.046875 L 73.871094 117.046875 L 80.234375 116.582031 L 84.136719 125.109375 L 81.179688 115.746094 L 81.070312 115.390625 L 80.605469 115.390625 L 74.675781 115.0625 L 72.828125 108.136719 L 72.652344 107.441406 L 71.75 107.179688 L 62.59375 104.441406 L 61.074219 100.980469 C 60.019531 98.597656 58.964844 96.203125 57.898438 93.820312 L 67.027344 87.800781 L 68.164062 87.058594 L 67.875 85.800781 C 66.917969 81.476562 65.847656 77.179688 64.808594 72.867188 L 67.203125 67.390625 L 69.777344 61.273438 L 69.914062 60.945312 L 69.914062 60.6875 C 69.914062 59.6875 69.914062 58.703125 69.847656 57.703125 L 73.390625 59.441406 L 76.746094 67.570312 L 76.976562 68.144531 L 77.457031 68.335938 L 85.558594 71.582031 L 85.792969 76.578125 L 83.738281 83.953125 L 83.628906 84.308594 L 83.972656 84.417969 L 92.992188 87.292969 L 84.601562 83.859375 L 87.242188 76.863281 L 87.242188 76.644531 L 87.503906 70.949219 L 87.503906 70.390625 L 86.898438 70.089844 L 79.167969 66.242188 L 78.140625 62.917969 L 83.722656 60.851562 L 86.433594 63.738281 L 86.613281 63.929688 L 86.734375 63.929688 L 91.773438 64.929688 L 87.351562 62.917969 L 85.066406 58.921875 L 84.738281 58.359375 L 83.804688 58.480469 L 77.085938 59.398438 L 76.550781 57.660156 L 76.375 57.113281 L 75.730469 56.730469 L 69.640625 53.0625 L 69.640625 51.269531 L 69.078125 50.925781 C 65.535156 48.738281 62.015625 46.519531 58.445312 44.359375 C 59.199219 42.003906 59.964844 39.648438 60.691406 37.28125 C 61.414062 34.914062 62.195312 32.109375 62.976562 29.519531 C 61.867188 32 60.746094 34.476562 59.703125 36.964844 C 58.664062 39.457031 57.554688 41.949219 56.5 44.453125 L 56.269531 45 L 56.828125 45.410156 C 60.140625 47.847656 63.507812 50.230469 66.847656 52.609375 C 66.753906 55.171875 66.699219 57.730469 66.628906 60.273438 L 64.714844 64.257812 L 52.121094 65.53125 L 50.480469 65.695312 L 50.480469 67.144531 L 50.738281 74.824219 L 44.910156 77.300781 L 44.648438 77.425781 L 44.484375 77.589844 L 35.492188 87.554688 L 35.066406 88.03125 L 35.4375 88.484375 Z M 42.199219 96.804688 " fill-opacity="1" fill-rule="nonzero"/></g><g clip-path="url(#84546889da)"><path fill="#fdfce9" d="M 89.238281 148.453125 L 47.339844 148.453125 C 46.761719 148.453125 46.304688 148.917969 46.304688 149.488281 L 46.304688 151.183594 L 42.363281 151.183594 C 42.085938 151.183594 41.867188 151.40625 41.867188 151.679688 L 41.867188 151.851562 L 24.429688 151.851562 C 23.226562 151.851562 22.507812 153.296875 23.175781 154.375 C 25.105469 157.484375 27.6875 159.96875 30.664062 161.675781 C 32.488281 162.730469 34.457031 163.484375 36.515625 163.910156 C 37.808594 164.179688 39.128906 164.320312 40.46875 164.320312 C 40.941406 164.320312 41.414062 164.359375 41.867188 164.433594 L 41.867188 164.761719 C 41.867188 165.039062 42.085938 165.257812 42.363281 165.257812 L 46.152344 165.257812 C 49.179688 165.257812 51.839844 167.332031 52.535156 170.285156 C 52.542969 170.300781 52.546875 170.328125 52.546875 170.34375 C 52.964844 172.144531 53.179688 173.945312 53.203125 175.746094 L 51.25 175.746094 C 50.429688 175.746094 49.660156 175.898438 49.207031 176.148438 L 39.246094 181.664062 L 39.246094 184.890625 L 84.855469 184.890625 L 84.855469 181.664062 L 74.894531 176.148438 C 74.433594 175.898438 73.667969 175.746094 72.847656 175.746094 L 70.902344 175.746094 C 71.078125 168.570312 76.085938 162.382812 83.085938 160.625 L 85.6875 159.96875 C 88.375 159.296875 90.257812 156.878906 90.257812 154.109375 L 90.257812 149.488281 C 90.257812 148.914062 89.800781 148.453125 89.238281 148.453125 Z M 89.238281 148.453125 " fill-opacity="1" fill-rule="nonzero"/></g><g clip-path="url(#9c7b5d9936)"><path fill="#fdfce9" d="M 58.191406 149.589844 C 56.972656 149.34375 57.496094 149.742188 47.3125 140.71875 C 46.527344 140.027344 46.398438 139.769531 46.605469 139.546875 C 47.226562 138.878906 56.625 147.519531 57.140625 147.988281 C 57.503906 148.316406 57.777344 148.75 58.078125 149.148438 C 58.140625 149.234375 58.140625 149.375 58.191406 149.589844 Z M 58.191406 149.589844 " fill-opacity="1" fill-rule="nonzero"/></g><g clip-path="url(#0896c980f0)"><path fill="#fdfce9" d="M 67.082031 148.003906 C 66.332031 148.839844 66.039062 149.140625 65.769531 149.042969 C 64.597656 148.621094 71.996094 140.894531 73.226562 139.574219 C 73.730469 139.027344 74.339844 138.578125 74.917969 138.101562 C 75.054688 137.988281 75.246094 137.941406 75.414062 137.863281 C 76.015625 138.363281 73.054688 141.359375 67.082031 148.003906 Z M 67.082031 148.003906 " fill-opacity="1" fill-rule="nonzero"/></g><path fill="#fdfce9" d="M 57.054688 145.742188 C 56.855469 145.664062 56.632812 145.6875 56.242188 145.132812 C 53.378906 141.085938 53.667969 141.464844 53.417969 140.914062 C 53.257812 140.554688 53.671875 140.261719 53.957031 140.621094 C 54.523438 141.335938 56.425781 144.15625 56.792969 144.703125 C 56.984375 144.992188 57.15625 145.308594 57.054688 145.742188 Z M 57.054688 145.742188 " fill-opacity="1" fill-rule="nonzero"/><g clip-path="url(#02c060b213)"><path fill="#fdfce9" d="M 51.304688 152.550781 C 48.367188 152.15625 47.902344 152.871094 47.757812 152.234375 C 47.652344 151.746094 48.21875 151.679688 48.847656 151.582031 C 50.984375 151.25 52.65625 152.214844 51.769531 152.472656 C 51.601562 152.523438 51.421875 152.535156 51.304688 152.550781 Z M 51.304688 152.550781 " fill-opacity="1" fill-rule="nonzero"/></g><path fill="#fdfce9" d="M 69.324219 149.050781 C 69.15625 149.128906 68.957031 149.132812 68.746094 149.175781 C 68.707031 148.828125 68.597656 148.980469 72.484375 146.300781 C 74.503906 144.90625 73.535156 147.050781 69.324219 149.050781 Z M 69.324219 149.050781 " fill-opacity="1" fill-rule="nonzero"/><path fill="#fdfce9" d="M 73.398438 150.410156 C 72.640625 150.824219 73.453125 150.566406 69.800781 151.675781 C 69.21875 151.851562 68.753906 151.363281 69.515625 151.117188 C 71.867188 150.363281 73.210938 149.785156 73.398438 150.410156 Z M 73.398438 150.410156 " fill-opacity="1" fill-rule="nonzero"/><path fill="#fdfce9" d="M 54.003906 150.511719 C 53.464844 150.699219 53.457031 150.582031 50.828125 149.246094 C 50.042969 148.847656 50.359375 149.097656 50.046875 148.761719 C 50.140625 148.699219 50.230469 148.59375 50.328125 148.582031 C 50.484375 148.566406 50.667969 148.570312 50.800781 148.640625 C 54.125 150.296875 53.582031 150.050781 54.003906 150.511719 Z M 54.003906 150.511719 " fill-opacity="1" fill-rule="nonzero"/><path fill="#fdfce9" d="M 66.296875 143.496094 C 66.472656 143.191406 66.789062 143.179688 66.953125 143.292969 C 67.171875 143.445312 66.929688 143.792969 66.078125 145.304688 C 65.980469 145.472656 65.707031 145.546875 65.632812 145.507812 C 65.15625 145.257812 65.796875 144.363281 66.296875 143.496094 Z M 66.296875 143.496094 " fill-opacity="1" fill-rule="nonzero"/><g fill="#111111" fill-opacity="1"><g transform="translate(127.411156, 203.664764)"><g><path d="M 8.328125 0 L 8.328125 -188.140625 L 83.671875 -188.140625 L 83.671875 -151.5625 L 46.21875 -151.5625 L 46.21875 -121.5625 L 81.703125 -121.5625 L 81.703125 -85.421875 L 46.21875 -85.421875 L 46.21875 0 Z M 8.328125 0 "/></g></g></g></svg>