<svg xmlns="http://www.w3.org/2000/svg" xmlns:xlink="http://www.w3.org/1999/xlink" width="300" zoomAndPan="magnify" viewBox="0 0 224.87999 112.499997" height="150" preserveAspectRatio="xMidYMid meet" version="1.0"><defs><g/><clipPath id="3df7cb6140"><path d="M 96 29 L 224.324219 29 L 224.324219 83 L 96 83 Z M 96 29 " clip-rule="nonzero"/></clipPath><clipPath id="d1c67495dd"><path d="M 0.4375 40.378906 L 91.625 40.378906 L 91.625 70.957031 L 0.4375 70.957031 Z M 0.4375 40.378906 " clip-rule="nonzero"/></clipPath></defs><g fill="#fdfce9" fill-opacity="1"><g transform="translate(-0.077658, 78.686419)"><g><path d="M 2 -45.1875 L 14.46875 -45.1875 C 17.695312 -45.1875 20.113281 -44.289062 21.71875 -42.5 C 23.332031 -40.71875 24.160156 -38.070312 24.203125 -34.5625 L 24.3125 -13.421875 C 24.34375 -8.960938 23.566406 -5.609375 21.984375 -3.359375 C 20.410156 -1.117188 17.800781 0 14.15625 0 L 2 0 Z M 12.671875 -8 C 14.328125 -8 15.15625 -8.804688 15.15625 -10.421875 L 15.15625 -33.71875 C 15.15625 -34.738281 15.070312 -35.503906 14.90625 -36.015625 C 14.75 -36.523438 14.460938 -36.863281 14.046875 -37.03125 C 13.628906 -37.207031 12.976562 -37.296875 12.09375 -37.296875 L 11.09375 -37.296875 L 11.09375 -8 Z M 12.671875 -8 "/></g></g></g><g fill="#fdfce9" fill-opacity="1"><g transform="translate(27.171543, 78.686419)"><g><path d="M 12.46875 0.421875 C 8.75 0.421875 5.984375 -0.628906 4.171875 -2.734375 C 2.367188 -4.835938 1.46875 -7.957031 1.46875 -12.09375 L 1.46875 -45.1875 L 10.265625 -45.1875 L 10.265625 -12.46875 C 10.265625 -11.03125 10.398438 -9.90625 10.671875 -9.09375 C 10.953125 -8.289062 11.550781 -7.890625 12.46875 -7.890625 C 13.382812 -7.890625 13.976562 -8.285156 14.25 -9.078125 C 14.53125 -9.867188 14.671875 -11 14.671875 -12.46875 L 14.671875 -45.1875 L 23.46875 -45.1875 L 23.46875 -12.09375 C 23.46875 -7.957031 22.5625 -4.835938 20.75 -2.734375 C 18.945312 -0.628906 16.1875 0.421875 12.46875 0.421875 Z M 12.46875 0.421875 "/></g></g></g><g fill="#fdfce9" fill-opacity="1"><g transform="translate(53.421263, 78.686419)"><g><path d="M 2 0 L 2 -45.1875 L 20.09375 -45.1875 L 20.09375 -36.453125 L 11.203125 -36.453125 L 11.203125 -27.671875 L 19.734375 -27.671875 L 19.734375 -19.15625 L 11.203125 -19.15625 L 11.203125 -8.78125 L 20.671875 -8.78125 L 20.671875 0 Z M 2 0 "/></g></g></g><g fill="#fdfce9" fill-opacity="1"><g transform="translate(76.409504, 78.686419)"><g><path d="M 2 0 L 2 -45.1875 L 11.046875 -45.1875 L 11.046875 -7.6875 L 20.359375 -7.6875 L 20.359375 0 Z M 2 0 "/></g></g></g><g clip-path="url(#3df7cb6140)"><path stroke-linecap="butt" transform="matrix(0.98643, 0, 0, 0.98643, 98.282795, 21.473477)" fill="none" stroke-linejoin="miter" d="M 2.029907 58.001096 L 2.029907 12.195928 L 20.376526 12.195928 L 20.376526 21.101938 L 11.248757 21.101938 L 11.248757 28.404154 L 19.893408 28.404154 L 19.893408 37.207205 L 11.248757 37.207205 L 11.248757 58.001096 Z M 35.567036 58.428774 C 31.868408 58.428774 29.060778 57.300178 27.144144 55.042985 C 25.22355 52.785793 24.265234 49.613843 24.265234 45.527137 L 24.265234 23.70365 C 24.265234 19.763463 25.22355 16.793472 27.144144 14.785759 C 29.060778 12.774086 31.868408 11.764289 35.567036 11.764289 C 39.265664 11.764289 42.073294 12.774086 43.989928 14.785759 C 45.918442 16.793472 46.880718 19.763463 46.880718 23.70365 L 46.880718 45.527137 C 46.880718 49.649483 45.918442 52.829353 43.989928 55.070705 C 42.073294 57.308098 39.265664 58.428774 35.567036 58.428774 Z M 35.567036 50.005882 C 36.390713 50.005882 36.941151 49.649483 37.218351 48.936686 C 37.50743 48.227848 37.649989 47.229931 37.649989 45.942936 L 37.649989 23.54921 C 37.649989 22.551293 37.51535 21.743456 37.24607 21.125698 C 36.984711 20.50398 36.442193 20.191141 35.618516 20.191141 C 34.089961 20.191141 33.325683 21.343497 33.325683 23.65217 L 33.325683 45.994415 C 33.325683 47.313091 33.488043 48.314968 33.808802 48.992126 C 34.129561 49.665323 34.715639 50.005882 35.567036 50.005882 Z M 51.894062 12.195928 L 65.967855 12.195928 C 68.205248 12.195928 69.939722 12.702806 71.163358 13.720523 C 72.394914 14.726359 73.222551 16.144035 73.65023 17.977509 C 74.073948 19.807022 74.287787 22.147375 74.287787 24.994605 C 74.287787 27.588397 73.947229 29.61591 73.270071 31.073185 C 72.596873 32.52254 71.424717 33.536297 69.757562 34.106535 C 71.143558 34.395614 72.149394 35.088612 72.763192 36.189488 C 73.38887 37.294324 73.701709 38.787239 73.701709 40.672193 L 73.59875 58.001096 L 64.641259 58.001096 L 64.641259 40.086115 C 64.641259 38.799119 64.38782 37.979402 63.884902 37.623003 C 63.389904 37.266604 62.483067 37.088405 61.164391 37.088405 L 61.164391 58.001096 L 51.894062 58.001096 Z M 63.401784 29.148631 C 64.688779 29.148631 65.330297 27.762636 65.330297 24.994605 C 65.330297 23.778889 65.274857 22.872052 65.160018 22.274094 C 65.057058 21.664256 64.859059 21.248458 64.57394 21.022738 C 64.296741 20.789099 63.888862 20.6703 63.350304 20.6703 L 61.215871 20.6703 L 61.215871 29.148631 Z M 88.104181 58.428774 C 84.797592 58.428774 82.330521 57.268498 80.706926 54.940026 C 79.095211 52.603634 78.287374 49.071325 78.287374 44.343101 L 78.287374 24.618406 C 78.287374 20.381221 79.229851 17.181551 81.110845 15.019398 C 82.995798 12.849326 85.803429 11.764289 89.533737 11.764289 C 92.555207 11.764289 94.899519 12.370167 96.566673 13.574003 C 98.241748 14.781799 99.402024 16.543993 100.043542 18.860586 C 100.68506 21.169258 101.005819 24.139248 101.005819 27.766596 L 92.048328 27.766596 L 92.048328 23.65217 C 92.048328 22.551293 91.897849 21.699896 91.59293 21.101938 C 91.288011 20.4921 90.745493 20.191141 89.965375 20.191141 C 88.219021 20.191141 87.347824 21.327657 87.347824 23.60069 L 87.347824 45.788496 C 87.347824 47.174492 87.526023 48.227848 87.882422 48.936686 C 88.238821 49.649483 88.864499 50.005882 89.755496 50.005882 C 90.642533 50.005882 91.264251 49.649483 91.62065 48.936686 C 91.973089 48.227848 92.151288 47.174492 92.151288 45.788496 L 92.151288 39.226798 L 89.704016 39.226798 L 89.704016 31.334544 L 100.902859 31.334544 L 100.902859 58.001096 L 97.216111 58.001096 L 95.667756 54.159908 C 94.036242 57.007139 91.51373 58.428774 88.104181 58.428774 Z M 105.860763 58.001096 L 105.860763 12.195928 L 124.207382 12.195928 L 124.207382 21.034618 L 115.182572 21.034618 L 115.182572 29.956469 L 123.827223 29.956469 L 123.827223 38.58528 L 115.182572 38.58528 L 115.182572 49.095085 L 124.79346 49.095085 L 124.79346 58.001096 Z M 105.860763 58.001096 " stroke="#00bfff" stroke-width="0.666666" stroke-opacity="1" stroke-miterlimit="4"/></g><g clip-path="url(#d1c67495dd)"><path fill="#0f0e0c" d="M 14.972656 70.179688 L 14.972656 69.621094 C 14.972656 69.203125 14.628906 68.859375 14.214844 68.859375 L 13.546875 68.859375 L 13.546875 65.015625 C 13.546875 58.929688 15.308594 58.15625 15.308594 58.15625 L 81.394531 58.15625 L 91.625 55.667969 L 81.394531 53.183594 L 15.3125 53.183594 C 15.3125 53.183594 13.550781 52.40625 13.550781 46.324219 L 13.550781 42.476562 L 14.214844 42.476562 C 14.632812 42.476562 14.976562 42.136719 14.976562 41.714844 L 14.976562 41.160156 C 14.976562 40.742188 14.632812 40.398438 14.214844 40.398438 L 10.5 40.398438 C 10.082031 40.398438 9.738281 40.742188 9.738281 41.160156 L 9.738281 41.714844 C 9.738281 42.136719 10.082031 42.476562 10.5 42.476562 L 11.164062 42.476562 L 11.164062 46.324219 C 11.164062 52.40625 9.402344 53.183594 9.402344 53.183594 L 8.746094 53.183594 L 8.746094 53.195312 L -5.523438 53.425781 C -5.78125 52.980469 -6.261719 52.679688 -6.8125 52.679688 L -13.417969 52.679688 C -14.238281 52.679688 -14.910156 53.355469 -14.910156 54.175781 L -14.910156 57.164062 C -14.910156 57.984375 -14.238281 58.660156 -13.417969 58.660156 L -6.8125 58.660156 C -6.261719 58.660156 -5.78125 58.359375 -5.523438 57.914062 L 9.402344 58.15625 C 9.402344 58.15625 11.164062 58.933594 11.164062 65.015625 L 11.164062 68.863281 L 10.5 68.863281 C 10.082031 68.863281 9.738281 69.203125 9.738281 69.621094 L 9.738281 70.179688 C 9.738281 70.597656 10.082031 70.941406 10.5 70.941406 L 14.214844 70.941406 C 14.632812 70.9375 14.972656 70.597656 14.972656 70.175781 Z M 14.972656 70.179688 " fill-opacity="1" fill-rule="nonzero"/></g></svg>