<svg xmlns="http://www.w3.org/2000/svg" xmlns:xlink="http://www.w3.org/1999/xlink" width="300" zoomAndPan="magnify" viewBox="0 0 224.87999 225" height="300" preserveAspectRatio="xMidYMid meet" version="1.0"><defs><g/></defs><g fill="#111111" fill-opacity="1"><g transform="translate(10.594965, 203.664764)"><g><path d="M 8.328125 -188.140625 L 60.234375 -188.140625 C 73.671875 -188.140625 83.742188 -184.414062 90.453125 -176.96875 C 97.171875 -169.53125 100.601562 -158.507812 100.75 -143.90625 L 101.1875 -55.859375 C 101.332031 -37.304688 98.117188 -23.359375 91.546875 -14.015625 C 84.984375 -4.671875 74.109375 0 58.921875 0 L 8.328125 0 Z M 52.78125 -33.296875 C 59.644531 -33.296875 63.078125 -36.65625 63.078125 -43.375 L 63.078125 -140.40625 C 63.078125 -144.632812 62.75 -147.804688 62.09375 -149.921875 C 61.4375 -152.046875 60.234375 -153.472656 58.484375 -154.203125 C 56.734375 -154.929688 54.03125 -155.296875 50.375 -155.296875 L 46.21875 -155.296875 L 46.21875 -33.296875 Z M 52.78125 -33.296875 "/></g></g></g><g fill="#111111" fill-opacity="1"><g transform="translate(127.411156, 203.664764)"><g><path d="M 8.328125 0 L 8.328125 -188.140625 L 83.671875 -188.140625 L 83.671875 -151.5625 L 46.21875 -151.5625 L 46.21875 -121.5625 L 81.703125 -121.5625 L 81.703125 -85.421875 L 46.21875 -85.421875 L 46.21875 0 Z M 8.328125 0 "/></g></g></g></svg>